<?xml version="1.0" encoding="UTF-8"?>
<svg width="251px" height="36px" viewBox="0 0 251 36" version="1.1" xmlns="http://www.w3.org/2000/svg" xmlns:xlink="http://www.w3.org/1999/xlink">
    <!-- Generator: Sketch 55.1 (78136) - https://sketchapp.com -->
    <title>Logo / Scotiabank / EN / 36px</title>
    <desc>Created with Sketch.</desc>
    <defs>
        <polygon id="path-1" points="0 35.689932 250.654785 35.689932 250.654785 -0.000108 0 -0.000108"></polygon>
    </defs>
    <g id="Page-1" stroke="none" stroke-width="1" fill="none" fill-rule="evenodd">
        <g id="Logo-/-Scotiabank-/-EN-/-36px">
            <g id="Group-17">
                <path d="M60.9080987,28.74978 C57.8943007,28.74978 55.4418365,26.29602 55.4418365,23.2785 C55.4418365,20.26134 57.8943007,17.80722 60.9080987,17.80722 C63.9218967,17.80722 66.3732821,20.26134 66.3732821,23.2785 C66.3732821,26.29602 63.9218967,28.74978 60.9080987,28.74978 M60.9080987,10.86822 C54.0724841,10.86822 48.5105686,16.43526 48.5105686,23.2785 C48.5105686,30.1221 54.0724841,35.68986 60.9080987,35.68986 C67.7437133,35.68986 73.30455,30.1221 73.30455,23.2785 C73.30455,16.43526 67.7437133,10.86822 60.9080987,10.86822" id="Fill-1" fill="#EC111A"></path>
                <polygon id="Fill-3" fill="#EC111A" points="89.0983474 11.458512 85.7145222 11.458512 85.7145222 4.132872 78.303909 4.132872 78.303909 11.458512 74.9197242 11.458512 74.9197242 18.173232 78.303909 18.173232 78.303909 35.099712 85.7145222 35.099712 85.7145222 18.173232 89.0983474 18.173232"></polygon>
                <mask id="mask-2" fill="white">
                    <use xlink:href="#path-1"></use>
                </mask>
                <g id="Clip-6"></g>
                <polygon id="Fill-5" fill="#EC111A" mask="url(#mask-2)" points="92.4978152 35.099532 99.90699 35.099532 99.90699 11.458332 92.4978152 11.458332"></polygon>
                <path d="M96.2018272,0.000396 C93.9259261,0.000396 92.073992,1.854396 92.073992,4.132836 C92.073992,6.411276 93.9259261,8.265276 96.2018272,8.265276 C98.4788072,8.265276 100.330741,6.411276 100.330741,4.132836 C100.330741,1.854396 98.4788072,0.000396 96.2018272,0.000396" id="Fill-7" fill="#EC111A" mask="url(#mask-2)"></path>
                <path d="M202.475047,17.826876 C204.909891,17.826876 206.890562,19.809756 206.890562,22.247316 L206.890562,35.099676 L214.300096,35.099676 L214.300096,21.230676 C214.300096,14.934636 210.671384,10.866996 204.945132,10.866996 C202.590838,10.866996 200.10637,11.899476 198.060612,15.204996 L198.060612,11.457396 L190.649999,11.457396 L190.649999,35.099676 L198.060612,35.099676 L198.060612,22.247316 C198.060612,19.809756 200.041282,17.826876 202.475047,17.826876" id="Fill-8" fill="#EC111A" mask="url(#mask-2)"></path>
                <polygon id="Fill-9" fill="#EC111A" mask="url(#mask-2)" points="241.3082 35.099676 232.203157 23.287716 240.669192 11.457396 232.008614 11.457396 225.204644 21.022236 225.204644 0.590796 217.794031 0.590796 217.794031 35.099676 225.204644 35.099676 225.204644 25.355556 232.674591 35.099676"></polygon>
                <path d="M22.9990437,28.736748 C23.5316096,27.450468 23.7599549,26.147268 23.7599549,24.380748 C23.7599549,21.995388 23.0127085,19.862388 21.6555824,18.375948 C20.0733474,16.640748 17.369164,15.200388 13.6174692,14.093028 C12.7950666,13.851108 12.1064348,13.592268 11.5109391,13.301028 C10.848558,12.978468 10.360942,12.586068 9.94129011,12.131388 C9.46122564,11.611908 9.26632307,10.994868 9.26632307,10.215468 C9.26632307,9.117468 9.85426719,8.373348 10.8086426,7.771788 C12.0068259,7.016508 14.3111354,6.941628 16.6668675,7.816068 C17.4867529,8.120628 18.2210537,8.456868 19.0571211,8.948268 L22.2068474,2.674548 C21.0370723,1.974708 19.3721297,1.063188 17.6906454,0.635868 C15.9857872,0.202068 14.3866511,0.000108 12.6580595,0.000108 C10.9251526,0.000108 9.34291762,0.261828 7.95522564,0.778428 C6.72144198,1.234908 5.44378725,2.069028 4.35636032,3.124188 C3.37069986,4.081428 2.4770967,5.445828 1.96322994,6.711588 C1.43677722,8.005428 1.16995487,9.475308 1.16995487,11.081988 C1.16995487,12.759588 1.96287034,15.473268 3.96188037,17.348508 C6.1194735,19.374588 8.5669033,20.093148 9.55220415,20.474388 C10.5274362,20.851668 11.6206168,21.176388 12.3132042,21.452868 C13.0446282,21.746268 13.8699076,22.132908 14.3420609,22.486788 C14.8494549,22.867308 15.1925122,23.211468 15.4226554,23.690268 C15.6466855,24.160788 15.7038617,24.585588 15.6531583,25.197588 C15.5887901,25.976628 15.2342256,26.638668 14.5991741,27.236628 C13.9641225,27.834588 12.8177213,28.176948 11.1926941,28.176948 C9.82909527,28.176948 8.44284169,27.793908 7.0601841,27.181188 C5.84330158,26.642628 5.00291905,26.167788 3.7033288,25.399908 L-0.000179799427,31.859748 C2.58461676,34.157268 6.77466261,35.689788 10.5065795,35.689788 C12.4131726,35.689788 14.3952815,35.372628 16.0893517,34.797348 C17.687409,34.254828 19.269644,33.369588 20.3200322,32.429628 C21.4473746,31.420908 22.4740294,30.005388 22.9990437,28.736748" id="Fill-10" fill="#EC111A" mask="url(#mask-2)"></path>
                <path d="M246.527309,34.267176 C244.70702,34.267176 243.231226,32.789736 243.231226,30.967416 C243.231226,29.145096 244.70702,27.667656 246.527309,27.667656 C248.347599,27.667656 249.823393,29.145096 249.823393,30.967416 C249.823393,32.789736 248.347599,34.267176 246.527309,34.267176 M246.527309,26.835336 C244.247453,26.835336 242.399474,28.685376 242.399474,30.967416 C242.399474,33.249456 244.247453,35.099856 246.527309,35.099856 C248.806807,35.099856 250.655145,33.249456 250.655145,30.967416 C250.655145,28.685376 248.806807,26.835336 246.527309,26.835336" id="Fill-11" fill="#EC111A" mask="url(#mask-2)"></path>
                <path d="M245.858348,30.90096 L246.805171,30.90096 C247.151825,30.90096 247.438785,30.59388 247.438785,30.20688 C247.438785,29.81988 247.151825,29.51928 246.805171,29.51928 L245.858348,29.51928 L245.858348,30.90096 Z M246.518931,31.65732 L245.858348,31.65732 L245.858348,33.22332 L245.044576,33.22332 L245.044576,28.71144 L246.772448,28.71144 C247.603121,28.71144 248.272694,29.38176 248.272694,30.20688 C248.272694,30.77388 247.91849,31.28328 247.403544,31.52196 L248.352525,33.22332 L247.377653,33.22332 L246.518931,31.65732 Z" id="Fill-12" fill="#EC111A" mask="url(#mask-2)"></path>
                <path d="M43.2916026,26.706312 C42.289041,27.951192 40.7542731,28.749672 39.0361097,28.749672 C36.0223117,28.749672 33.5698476,26.295912 33.5698476,23.278752 C33.5698476,20.261232 36.0223117,17.807112 39.0361097,17.807112 C40.7542731,17.807112 42.289041,18.605592 43.2916026,19.850832 L48.2030037,14.932512 C45.933935,12.436992 42.6648218,10.868112 39.0361097,10.868112 C32.2004951,10.868112 26.2480553,15.738192 26.2480553,23.278752 C26.2480553,30.818952 32.2004951,35.690112 39.0361097,35.690112 C42.6648218,35.690112 45.9342946,34.120872 48.2033633,31.624632 L43.2916026,26.706312 Z" id="Fill-13" fill="#EC111A" mask="url(#mask-2)"></path>
                <path d="M115.930571,28.86228 C112.854562,28.86228 110.353193,26.35776 110.353193,23.27868 C110.353193,20.19924 112.854562,17.69364 115.930571,17.69364 C119.00658,17.69364 121.509028,20.19924 121.509028,23.27868 C121.509028,26.35776 119.00658,28.86228 115.930571,28.86228 L115.930571,28.86228 Z M128.89411,35.09964 L128.89411,11.45736 L121.670488,11.45736 L121.670488,13.94352 L121.001274,13.34448 C119.189615,11.72376 117.164714,10.86732 114.779136,10.86732 C108.404527,10.86732 103.018455,16.55028 103.018455,23.27868 C103.018455,30.00672 108.404527,35.69004 114.779136,35.69004 C117.164714,35.69004 119.189615,34.8336 121.001274,33.21252 L121.670488,32.61384 L121.670488,35.09964 L128.89411,35.09964 Z" id="Fill-14" fill="#EC111A" mask="url(#mask-2)"></path>
                <path d="M174.13873,28.86228 C171.062721,28.86228 168.560992,26.35776 168.560992,23.27868 C168.560992,20.19924 171.062721,17.69364 174.13873,17.69364 C177.214738,17.69364 179.717546,20.19924 179.717546,23.27868 C179.717546,26.35776 177.214738,28.86228 174.13873,28.86228 L174.13873,28.86228 Z M187.102628,35.09964 L187.102628,11.45736 L179.878647,11.45736 L179.878647,13.94352 L179.209433,13.34448 C177.397774,11.72376 175.372873,10.86732 172.987294,10.86732 C166.612685,10.86732 161.226614,16.55028 161.226614,23.27868 C161.226614,30.00672 166.612685,35.69004 172.987294,35.69004 C175.372873,35.69004 177.397774,34.8336 179.209433,33.21252 L179.878647,32.61384 L179.878647,35.09964 L187.102628,35.09964 Z" id="Fill-15" fill="#EC111A" mask="url(#mask-2)"></path>
                <path d="M140.112371,23.278572 C140.112371,20.199132 142.615179,17.693532 145.691188,17.693532 C148.766837,17.693532 151.268566,20.199132 151.268566,23.278572 C151.268566,26.358012 148.766837,28.862172 145.691188,28.862172 C142.615179,28.862172 140.112371,26.358012 140.112371,23.278572 L140.112371,23.278572 Z M139.950911,35.099532 L139.950911,32.613732 L140.620485,33.212772 C142.431784,34.833492 144.457045,35.689932 146.842623,35.689932 C153.216873,35.689932 158.603304,30.006612 158.603304,23.278572 C158.603304,16.550532 153.216873,10.867212 146.842623,10.867212 C144.457045,10.867212 142.431784,11.723652 140.620485,13.344372 L139.950911,13.943412 L139.950911,0.590652 L132.72729,0.590652 L132.72729,35.099532 L139.950911,35.099532 Z" id="Fill-16" fill="#EC111A" mask="url(#mask-2)"></path>
            </g>
        </g>
    </g>
</svg>